_________________________  Visit us at _________________________
  
http://p2pdl.com  ____________________________  http://p2pdl.com


 
http://www.shotpix.com/images/12754064996793714365.jpg


Ghoul 2012 DVDRip x264 AAC - ViZNU
				
Genre: Drama | Thriller
Plot: Centers on a group of friends who risk their lives to stop who, or what, is behind a rash of
disappearances in their town.  
Director: Gregory Wilson
Stars: Nolan Gould, Andrea Frankle and Glen Warner.
Rated: N/a 
http://www.imdb.com/title/tt1877647/

General
Movie name                     : Ghoul 2012
Format                         : MPEG-4
Format profile                 : Base Media
Codec ID                       : isom
File size                      : 301 MiB
Duration                       : 1h 21mn
Overall bit rate mode          : Variable
Overall bit rate               : 518 Kbps
Source                         : NTSC.DVDR-KART3LDVD(Thanks)

Video
ID                             : 1
Format                         : AVC
Format/Info                    : Advanced Video Codec
Duration                       : 1h 21mn
Bit rate                       : 482 Kbps
Maximum bit rate               : 3 979 Kbps
Width                          : 608 pixels
Height                         : 336 pixels
Display aspect ratio           : 16:9
Frame rate mode                : Constant
Frame rate                     : 23.976 fps
Stream size                    : 281 MiB (93%)
Title                          : lãŽwÂšzÂ‚uH
Writing library                : x264 core 129 r2230
Language                       : English

Audio
ID                             : 2
Format                         : AAC
Format/Info                    : Advanced Audio Codec
Codec ID                       : 40
Duration                       : 1h 21mn
Bit rate mode                  : Variable
Bit rate                       : 32.0 Kbps
Maximum bit rate               : 40.5 Kbps
Channel(s)                     : 2 channels
Channel positions              : Front: L R
Sampling rate                  : 44.1 KHz
Stream size                    : 18.6 MiB (6%)

Subtitle                       : N/a


Screens:
 
http://www.shotpix.com/images/33043155491461422087.png 
http://www.shotpix.com/images/30612347185600215226.png 
http://www.shotpix.com/images/61096848363209514059.png 
http://www.shotpix.com/images/48833254293653875274.png 
http://www.shotpix.com/images/07433670537548300993.png 
http://www.shotpix.com/images/14194203249619874506.png


----------------------------------------------------------------------------------------------------


Recommend to you to use latest version of VLC player. Install K-Lite Codec Pack or shark007 codecs
in case of any kind of problem in playback (For non-VLC Media Player users). Alternatively, install
Core AVC codecs, the fastest decoder that there is coupled with Community Center Codec Pack and play
on Windows Media Player Classic. Check sample to be sure.
Enjoy!

Greets to: Vitamin_X, a2zRG, srkfan, MgB, Stumpie1971, Sheychi, StyLishSaLH, Masta and staff members at
ExtraTorrent, TPB,KAT, 1337x, PublicHD, Ahashare, BTScene, SilverTorrent, LimeTorrents, TorrentMafia,
P2PDL, and all others.

Encoder Notes: Looking For Early Access To Anything You Can Provide DVDScr, R5, DVDR, BluRay, Direct
Audio, Early Music Releases, Seedboxes, Dedicated Servers anything u can provide, Advance / Promo CDs/
DVDs. If You Got anything to offer contact me at "prg@hush.com".

Facebook Fan Page: www . facebook . com / p2pdl